<mxfile host="Electron" agent="Mozilla/5.0 (Windows NT 10.0; Win64; x64) AppleWebKit/537.36 (KHTML, like Gecko) draw.io/28.0.6 Chrome/138.0.7204.100 Electron/37.2.3 Safari/537.36" version="28.0.6">
  <diagram name="Pagina-1" id="Ks-jWGh-HKqVKvSMnsgn">
    <mxGraphModel dx="9507" dy="5833" grid="1" gridSize="10" guides="1" tooltips="1" connect="1" arrows="1" fold="1" page="0" pageScale="1" pageWidth="827" pageHeight="1169" math="0" shadow="0">
      <root>
        <mxCell id="0" />
        <mxCell id="1" parent="0" />
        <mxCell id="DiCDhZw2fZLvfQioZ7Zl-102" value="" style="endArrow=none;dashed=1;html=1;rounded=0;fontFamily=Helvetica;fontSize=12;fontColor=default;entryX=0.5;entryY=1;entryDx=0;entryDy=0;exitX=0.5;exitY=0;exitDx=0;exitDy=0;" parent="1" source="DiCDhZw2fZLvfQioZ7Zl-101" target="DiCDhZw2fZLvfQioZ7Zl-79" edge="1">
          <mxGeometry width="50" height="50" relative="1" as="geometry">
            <mxPoint x="3670" y="2230" as="sourcePoint" />
            <mxPoint x="3720" y="2180" as="targetPoint" />
          </mxGeometry>
        </mxCell>
        <mxCell id="DiCDhZw2fZLvfQioZ7Zl-51" value="" style="endArrow=none;dashed=1;html=1;rounded=0;fontFamily=Helvetica;fontSize=12;fontColor=default;exitX=0.5;exitY=0;exitDx=0;exitDy=0;entryX=0.5;entryY=1;entryDx=0;entryDy=0;" parent="1" source="DiCDhZw2fZLvfQioZ7Zl-49" target="DiCDhZw2fZLvfQioZ7Zl-26" edge="1">
          <mxGeometry width="50" height="50" relative="1" as="geometry">
            <mxPoint x="1220" y="980" as="sourcePoint" />
            <mxPoint x="1270" y="930" as="targetPoint" />
          </mxGeometry>
        </mxCell>
        <mxCell id="DiCDhZw2fZLvfQioZ7Zl-2" value="aJButton" style="whiteSpace=wrap;html=1;aspect=fixed;" parent="1" vertex="1">
          <mxGeometry x="80" y="160" width="160" height="160" as="geometry" />
        </mxCell>
        <mxCell id="DiCDhZw2fZLvfQioZ7Zl-3" value="" style="rounded=0;whiteSpace=wrap;html=1;" parent="1" vertex="1">
          <mxGeometry x="120" y="320" width="80" height="3640" as="geometry" />
        </mxCell>
        <mxCell id="DiCDhZw2fZLvfQioZ7Zl-4" value="aCheckinPassengers" style="whiteSpace=wrap;html=1;aspect=fixed;" parent="1" vertex="1">
          <mxGeometry x="561" y="160" width="160" height="160" as="geometry" />
        </mxCell>
        <mxCell id="DiCDhZw2fZLvfQioZ7Zl-5" value="" style="rounded=0;whiteSpace=wrap;html=1;perimeterSpacing=0;" parent="1" vertex="1">
          <mxGeometry x="600" y="480" width="80" height="3400" as="geometry" />
        </mxCell>
        <mxCell id="DiCDhZw2fZLvfQioZ7Zl-7" value="" style="endArrow=classic;html=1;rounded=0;fontFamily=Helvetica;fontSize=12;fontColor=default;entryX=0;entryY=0;entryDx=0;entryDy=0;" parent="1" target="DiCDhZw2fZLvfQioZ7Zl-5" edge="1">
          <mxGeometry width="50" height="50" relative="1" as="geometry">
            <mxPoint x="200" y="480" as="sourcePoint" />
            <mxPoint x="590" y="480.000000000006" as="targetPoint" />
          </mxGeometry>
        </mxCell>
        <mxCell id="DiCDhZw2fZLvfQioZ7Zl-8" value="" style="endArrow=none;dashed=1;html=1;rounded=0;fontFamily=Helvetica;fontSize=12;fontColor=default;exitX=0.5;exitY=0;exitDx=0;exitDy=0;entryX=0.5;entryY=1;entryDx=0;entryDy=0;" parent="1" source="DiCDhZw2fZLvfQioZ7Zl-5" target="DiCDhZw2fZLvfQioZ7Zl-4" edge="1">
          <mxGeometry width="50" height="50" relative="1" as="geometry">
            <mxPoint x="500" y="400" as="sourcePoint" />
            <mxPoint x="650" y="340" as="targetPoint" />
          </mxGeometry>
        </mxCell>
        <mxCell id="DiCDhZw2fZLvfQioZ7Zl-10" value="setGate (&lt;font style=&quot;color: rgb(135, 16, 148);&quot;&gt;controller&lt;/font&gt;)" style="text;html=1;align=center;verticalAlign=middle;whiteSpace=wrap;rounded=0;fontFamily=Helvetica;fontSize=12;fontColor=default;" parent="1" vertex="1">
          <mxGeometry x="320" y="450" width="160" height="30" as="geometry" />
        </mxCell>
        <mxCell id="DiCDhZw2fZLvfQioZ7Zl-13" value="" style="shape=card;whiteSpace=wrap;html=1;rounded=0;strokeColor=default;align=center;verticalAlign=middle;fontFamily=Helvetica;fontSize=12;fontColor=default;fillColor=default;rotation=-180;size=20;" parent="1" vertex="1">
          <mxGeometry x="400" y="640" width="115" height="80" as="geometry" />
        </mxCell>
        <mxCell id="DiCDhZw2fZLvfQioZ7Zl-14" value="ALT" style="text;html=1;align=center;verticalAlign=middle;whiteSpace=wrap;rounded=0;fontFamily=Helvetica;fontSize=12;fontColor=default;" parent="1" vertex="1">
          <mxGeometry x="427.5" y="665" width="60" height="30" as="geometry" />
        </mxCell>
        <mxCell id="DiCDhZw2fZLvfQioZ7Zl-16" value="&lt;div style=&quot;background-color: rgb(255, 255, 255);&quot;&gt;&lt;pre style=&quot;font-family: &amp;quot;JetBrains Mono&amp;quot;, monospace;&quot;&gt;&lt;span style=&quot;color: rgb(135, 16, 148);&quot;&gt;&lt;font style=&quot;color: rgb(0, 0, 0);&quot;&gt;[&lt;/font&gt;&lt;/span&gt;&lt;span style=&quot;color: rgb(135, 16, 148);&quot;&gt;gateButton&lt;/span&gt;&lt;font color=&quot;#080808&quot;&gt;.getText().equals(&lt;/font&gt;&lt;span style=&quot;color: rgb(6, 125, 23);&quot;&gt;&quot;GATE&quot;&lt;/span&gt;&lt;font color=&quot;#080808&quot;&gt;)]&lt;/font&gt;&lt;/pre&gt;&lt;/div&gt;" style="text;html=1;align=center;verticalAlign=middle;whiteSpace=wrap;rounded=0;fontFamily=Helvetica;fontSize=12;fontColor=default;fillColor=none;" parent="1" vertex="1">
          <mxGeometry x="515" y="665" width="250" height="30" as="geometry" />
        </mxCell>
        <mxCell id="DiCDhZw2fZLvfQioZ7Zl-17" value="&lt;div style=&quot;color: rgb(8, 8, 8);&quot;&gt;&lt;pre style=&quot;font-family: &amp;quot;JetBrains Mono&amp;quot;, monospace;&quot;&gt;&lt;span&gt;getGateController()&lt;/span&gt;&lt;/pre&gt;&lt;/div&gt;" style="text;html=1;align=center;verticalAlign=middle;whiteSpace=wrap;rounded=0;fontFamily=Helvetica;fontSize=12;fontColor=default;fillColor=none;" parent="1" vertex="1">
          <mxGeometry x="800" y="730" width="160" height="30" as="geometry" />
        </mxCell>
        <mxCell id="DiCDhZw2fZLvfQioZ7Zl-25" value="aController" style="whiteSpace=wrap;html=1;aspect=fixed;rounded=0;strokeColor=default;align=center;verticalAlign=middle;fontFamily=Helvetica;fontSize=12;fontColor=default;fillColor=default;" parent="1" vertex="1">
          <mxGeometry x="1040" y="160" width="160" height="160" as="geometry" />
        </mxCell>
        <mxCell id="DiCDhZw2fZLvfQioZ7Zl-26" value="" style="rounded=0;whiteSpace=wrap;html=1;strokeColor=default;align=center;verticalAlign=middle;fontFamily=Helvetica;fontSize=12;fontColor=default;fillColor=default;" parent="1" vertex="1">
          <mxGeometry x="1080.5" y="760" width="79" height="80" as="geometry" />
        </mxCell>
        <mxCell id="DiCDhZw2fZLvfQioZ7Zl-27" value="" style="endArrow=none;dashed=1;html=1;rounded=0;fontFamily=Helvetica;fontSize=12;fontColor=default;exitX=0.5;exitY=0;exitDx=0;exitDy=0;entryX=0.5;entryY=1;entryDx=0;entryDy=0;" parent="1" source="DiCDhZw2fZLvfQioZ7Zl-26" target="DiCDhZw2fZLvfQioZ7Zl-25" edge="1">
          <mxGeometry width="50" height="50" relative="1" as="geometry">
            <mxPoint x="860" y="540" as="sourcePoint" />
            <mxPoint x="1120" y="380" as="targetPoint" />
          </mxGeometry>
        </mxCell>
        <mxCell id="DiCDhZw2fZLvfQioZ7Zl-28" value="" style="endArrow=classic;html=1;rounded=0;fontFamily=Helvetica;fontSize=12;fontColor=default;entryX=0;entryY=0;entryDx=0;entryDy=0;" parent="1" target="DiCDhZw2fZLvfQioZ7Zl-26" edge="1">
          <mxGeometry width="50" height="50" relative="1" as="geometry">
            <mxPoint x="680" y="760" as="sourcePoint" />
            <mxPoint x="810" y="790" as="targetPoint" />
          </mxGeometry>
        </mxCell>
        <mxCell id="DiCDhZw2fZLvfQioZ7Zl-31" value="" style="endArrow=classic;html=1;rounded=0;fontFamily=Helvetica;fontSize=12;fontColor=default;entryX=0.313;entryY=0.238;entryDx=0;entryDy=0;entryPerimeter=0;dashed=1;" parent="1" edge="1">
          <mxGeometry width="50" height="50" relative="1" as="geometry">
            <mxPoint x="1080" y="840" as="sourcePoint" />
            <mxPoint x="680.48" y="839.9199999999998" as="targetPoint" />
          </mxGeometry>
        </mxCell>
        <mxCell id="DiCDhZw2fZLvfQioZ7Zl-32" value="aGateController" style="whiteSpace=wrap;html=1;aspect=fixed;rounded=0;strokeColor=default;align=center;verticalAlign=middle;fontFamily=Helvetica;fontSize=12;fontColor=default;fillColor=default;" parent="1" vertex="1">
          <mxGeometry x="1520" y="160" width="160" height="160" as="geometry" />
        </mxCell>
        <mxCell id="DiCDhZw2fZLvfQioZ7Zl-33" value="aGateController" style="text;html=1;align=center;verticalAlign=middle;whiteSpace=wrap;rounded=0;fontFamily=Helvetica;fontSize=12;fontColor=default;" parent="1" vertex="1">
          <mxGeometry x="815" y="810" width="130" height="30" as="geometry" />
        </mxCell>
        <mxCell id="DiCDhZw2fZLvfQioZ7Zl-35" value="" style="rounded=0;whiteSpace=wrap;html=1;strokeColor=default;align=center;verticalAlign=middle;fontFamily=Helvetica;fontSize=12;fontColor=default;fillColor=default;" parent="1" vertex="1">
          <mxGeometry x="1560" y="920" width="80" height="2600" as="geometry" />
        </mxCell>
        <mxCell id="DiCDhZw2fZLvfQioZ7Zl-36" value="" style="endArrow=classic;html=1;rounded=0;fontFamily=Helvetica;fontSize=12;fontColor=default;exitX=0.313;exitY=0.333;exitDx=0;exitDy=0;exitPerimeter=0;entryX=0;entryY=0;entryDx=0;entryDy=0;" parent="1" target="DiCDhZw2fZLvfQioZ7Zl-35" edge="1">
          <mxGeometry width="50" height="50" relative="1" as="geometry">
            <mxPoint x="680.48" y="919.7199999999998" as="sourcePoint" />
            <mxPoint x="990" y="930" as="targetPoint" />
          </mxGeometry>
        </mxCell>
        <mxCell id="DiCDhZw2fZLvfQioZ7Zl-37" value="&lt;pre style=&quot;forced-color-adjust: none; font-size: 12px; font-style: normal; font-variant-ligatures: normal; font-variant-caps: normal; font-weight: 400; letter-spacing: normal; orphans: 2; text-align: center; text-indent: 0px; text-transform: none; widows: 2; word-spacing: 0px; -webkit-text-stroke-width: 0px; text-decoration-thickness: initial; text-decoration-style: initial; text-decoration-color: initial; font-family: &amp;quot;JetBrains Mono&amp;quot;, monospace;&quot;&gt;&lt;font color=&quot;#080808&quot;&gt;newGate(&lt;/font&gt;&lt;span style=&quot;color: rgb(135, 16, 148); forced-color-adjust: none;&quot;&gt;gateButton&lt;/span&gt;&lt;font color=&quot;#080808&quot;&gt;, &lt;/font&gt;&lt;span style=&quot;color: rgb(0, 0, 0); forced-color-adjust: none;&quot;&gt;controller&lt;/span&gt;&lt;font color=&quot;#080808&quot;&gt;, &lt;/font&gt;&lt;span style=&quot;color: rgb(0, 51, 179); forced-color-adjust: none;&quot;&gt;this&lt;/span&gt;&lt;span style=&quot;forced-color-adjust: none; color: rgb(0, 51, 179);&quot;&gt;&lt;font style=&quot;color: rgb(0, 0, 0);&quot;&gt;)&lt;/font&gt;&lt;/span&gt;&lt;/pre&gt;" style="text;html=1;align=center;verticalAlign=middle;whiteSpace=wrap;rounded=0;fontFamily=Helvetica;fontSize=12;fontColor=default;" parent="1" vertex="1">
          <mxGeometry x="991" y="880" width="260" height="40" as="geometry" />
        </mxCell>
        <mxCell id="DiCDhZw2fZLvfQioZ7Zl-39" value="" style="endArrow=none;dashed=1;html=1;rounded=0;fontFamily=Helvetica;fontSize=12;fontColor=default;exitX=0.5;exitY=0;exitDx=0;exitDy=0;entryX=0.5;entryY=1;entryDx=0;entryDy=0;" parent="1" source="DiCDhZw2fZLvfQioZ7Zl-35" target="DiCDhZw2fZLvfQioZ7Zl-32" edge="1">
          <mxGeometry width="50" height="50" relative="1" as="geometry">
            <mxPoint x="1190" y="840" as="sourcePoint" />
            <mxPoint x="1590" y="440" as="targetPoint" />
          </mxGeometry>
        </mxCell>
        <mxCell id="DiCDhZw2fZLvfQioZ7Zl-40" value="aFlightDaoImpl" style="whiteSpace=wrap;html=1;aspect=fixed;rounded=0;strokeColor=default;align=center;verticalAlign=middle;fontFamily=Helvetica;fontSize=12;fontColor=default;fillColor=default;" parent="1" vertex="1">
          <mxGeometry x="2959.5" y="920" width="161" height="160" as="geometry" />
        </mxCell>
        <mxCell id="DiCDhZw2fZLvfQioZ7Zl-43" value="&lt;div style=&quot;color: rgb(8, 8, 8);&quot;&gt;&lt;pre style=&quot;font-family: &amp;quot;JetBrains Mono&amp;quot;, monospace;&quot;&gt;&lt;span&gt;&lt;span style=&quot;color: rgb(0, 51, 179);&quot;&gt;new &lt;/span&gt;FlightDAOImpl()&lt;/span&gt;&lt;/pre&gt;&lt;/div&gt;" style="text;html=1;align=center;verticalAlign=middle;whiteSpace=wrap;rounded=0;fontFamily=Helvetica;fontSize=12;fontColor=default;" parent="1" vertex="1">
          <mxGeometry x="2240" y="970" width="160" height="30" as="geometry" />
        </mxCell>
        <mxCell id="DiCDhZw2fZLvfQioZ7Zl-47" value="&lt;div style=&quot;color: rgb(8, 8, 8);&quot;&gt;&lt;pre style=&quot;font-family: &amp;quot;JetBrains Mono&amp;quot;, monospace;&quot;&gt;&lt;span&gt;searchGate(&lt;span style=&quot;color: rgb(0, 0, 0);&quot;&gt;controller&lt;/span&gt;.getFlightController().getFlight().getId())&lt;/span&gt;&lt;/pre&gt;&lt;/div&gt;" style="text;html=1;align=center;verticalAlign=middle;whiteSpace=wrap;rounded=0;fontFamily=Helvetica;fontSize=12;fontColor=default;" parent="1" vertex="1">
          <mxGeometry x="1910" y="1530" width="450" height="30" as="geometry" />
        </mxCell>
        <mxCell id="DiCDhZw2fZLvfQioZ7Zl-49" value="" style="whiteSpace=wrap;html=1;aspect=fixed;rounded=0;strokeColor=default;align=center;verticalAlign=middle;fontFamily=Helvetica;fontSize=12;fontColor=default;fillColor=default;" parent="1" vertex="1">
          <mxGeometry x="1080" y="1080" width="80" height="80" as="geometry" />
        </mxCell>
        <mxCell id="DiCDhZw2fZLvfQioZ7Zl-50" value="&lt;pre style=&quot;forced-color-adjust: none; color: rgb(8, 8, 8); font-size: 12px; font-style: normal; font-variant-ligatures: normal; font-variant-caps: normal; font-weight: 400; letter-spacing: normal; orphans: 2; text-align: center; text-indent: 0px; text-transform: none; widows: 2; word-spacing: 0px; -webkit-text-stroke-width: 0px; text-decoration-thickness: initial; text-decoration-style: initial; text-decoration-color: initial; font-family: &amp;quot;JetBrains Mono&amp;quot;, monospace;&quot;&gt;&lt;span style=&quot;forced-color-adjust: none;&quot;&gt;getFlightController()&lt;/span&gt;&lt;/pre&gt;" style="text;html=1;align=center;verticalAlign=middle;whiteSpace=wrap;rounded=0;fontFamily=Helvetica;fontSize=12;fontColor=default;" parent="1" vertex="1">
          <mxGeometry x="1280" y="1050" width="160" height="30" as="geometry" />
        </mxCell>
        <mxCell id="DiCDhZw2fZLvfQioZ7Zl-52" value="" style="endArrow=classic;html=1;rounded=0;fontFamily=Helvetica;fontSize=12;fontColor=default;exitX=1;exitY=1;exitDx=0;exitDy=0;dashed=1;entryX=-0.003;entryY=0.092;entryDx=0;entryDy=0;entryPerimeter=0;" parent="1" source="DiCDhZw2fZLvfQioZ7Zl-49" target="DiCDhZw2fZLvfQioZ7Zl-35" edge="1">
          <mxGeometry width="50" height="50" relative="1" as="geometry">
            <mxPoint x="1230" y="1100" as="sourcePoint" />
            <mxPoint x="1520" y="1160" as="targetPoint" />
          </mxGeometry>
        </mxCell>
        <mxCell id="DiCDhZw2fZLvfQioZ7Zl-53" value="aFlightController" style="text;html=1;align=center;verticalAlign=middle;whiteSpace=wrap;rounded=0;fontFamily=Helvetica;fontSize=12;fontColor=default;" parent="1" vertex="1">
          <mxGeometry x="1305" y="1130" width="110" height="30" as="geometry" />
        </mxCell>
        <mxCell id="DiCDhZw2fZLvfQioZ7Zl-54" value="aFlightController" style="whiteSpace=wrap;html=1;aspect=fixed;rounded=0;strokeColor=default;align=center;verticalAlign=middle;fontFamily=Helvetica;fontSize=12;fontColor=default;fillColor=default;" parent="1" vertex="1">
          <mxGeometry x="2000" y="160" width="160" height="160" as="geometry" />
        </mxCell>
        <mxCell id="DiCDhZw2fZLvfQioZ7Zl-55" value="" style="endArrow=none;dashed=1;html=1;rounded=0;fontFamily=Helvetica;fontSize=12;fontColor=default;exitX=0.5;exitY=0;exitDx=0;exitDy=0;entryX=0.5;entryY=1;entryDx=0;entryDy=0;" parent="1" source="DiCDhZw2fZLvfQioZ7Zl-57" target="DiCDhZw2fZLvfQioZ7Zl-54" edge="1">
          <mxGeometry width="50" height="50" relative="1" as="geometry">
            <mxPoint x="2080" y="1240" as="sourcePoint" />
            <mxPoint x="2000" y="460" as="targetPoint" />
          </mxGeometry>
        </mxCell>
        <mxCell id="DiCDhZw2fZLvfQioZ7Zl-56" value="" style="endArrow=classic;html=1;rounded=0;fontFamily=Helvetica;fontSize=12;fontColor=default;entryX=0;entryY=0;entryDx=0;entryDy=0;exitX=1.002;exitY=0.123;exitDx=0;exitDy=0;exitPerimeter=0;" parent="1" source="DiCDhZw2fZLvfQioZ7Zl-35" target="DiCDhZw2fZLvfQioZ7Zl-57" edge="1">
          <mxGeometry width="50" height="50" relative="1" as="geometry">
            <mxPoint x="1680" y="1240" as="sourcePoint" />
            <mxPoint x="2040" y="1240" as="targetPoint" />
          </mxGeometry>
        </mxCell>
        <mxCell id="DiCDhZw2fZLvfQioZ7Zl-57" value="" style="rounded=0;whiteSpace=wrap;html=1;strokeColor=default;align=center;verticalAlign=middle;fontFamily=Helvetica;fontSize=12;fontColor=default;fillColor=default;" parent="1" vertex="1">
          <mxGeometry x="2040" y="1240" width="80" height="80" as="geometry" />
        </mxCell>
        <mxCell id="DiCDhZw2fZLvfQioZ7Zl-58" value="getFlight()" style="text;html=1;align=center;verticalAlign=middle;whiteSpace=wrap;rounded=0;fontFamily=Helvetica;fontSize=12;fontColor=default;" parent="1" vertex="1">
          <mxGeometry x="1800" y="1210" width="80" height="30" as="geometry" />
        </mxCell>
        <mxCell id="DiCDhZw2fZLvfQioZ7Zl-59" value="" style="endArrow=classic;html=1;rounded=0;fontFamily=Helvetica;fontSize=12;fontColor=default;exitX=0;exitY=1;exitDx=0;exitDy=0;dashed=1;entryX=0.997;entryY=0.154;entryDx=0;entryDy=0;entryPerimeter=0;" parent="1" source="DiCDhZw2fZLvfQioZ7Zl-57" target="DiCDhZw2fZLvfQioZ7Zl-35" edge="1">
          <mxGeometry width="50" height="50" relative="1" as="geometry">
            <mxPoint x="1790" y="1170" as="sourcePoint" />
            <mxPoint x="1650" y="1320" as="targetPoint" />
          </mxGeometry>
        </mxCell>
        <mxCell id="DiCDhZw2fZLvfQioZ7Zl-60" value="aFlight" style="whiteSpace=wrap;html=1;aspect=fixed;rounded=0;strokeColor=default;align=center;verticalAlign=middle;fontFamily=Helvetica;fontSize=12;fontColor=default;fillColor=default;" parent="1" vertex="1">
          <mxGeometry x="2480" y="160" width="160" height="160" as="geometry" />
        </mxCell>
        <mxCell id="DiCDhZw2fZLvfQioZ7Zl-61" value="" style="endArrow=none;dashed=1;html=1;rounded=0;fontFamily=Helvetica;fontSize=12;fontColor=default;entryX=0.5;entryY=1;entryDx=0;entryDy=0;" parent="1" target="DiCDhZw2fZLvfQioZ7Zl-60" edge="1">
          <mxGeometry width="50" height="50" relative="1" as="geometry">
            <mxPoint x="2560" y="1400" as="sourcePoint" />
            <mxPoint x="2640" y="420" as="targetPoint" />
          </mxGeometry>
        </mxCell>
        <mxCell id="DiCDhZw2fZLvfQioZ7Zl-63" value="" style="rounded=0;whiteSpace=wrap;html=1;strokeColor=default;align=center;verticalAlign=middle;fontFamily=Helvetica;fontSize=12;fontColor=default;fillColor=default;" parent="1" vertex="1">
          <mxGeometry x="2520" y="1400" width="80" height="80" as="geometry" />
        </mxCell>
        <mxCell id="DiCDhZw2fZLvfQioZ7Zl-64" value="" style="endArrow=classic;html=1;rounded=0;fontFamily=Helvetica;fontSize=12;fontColor=default;entryX=0;entryY=0;entryDx=0;entryDy=0;exitX=1.023;exitY=0.185;exitDx=0;exitDy=0;exitPerimeter=0;" parent="1" source="DiCDhZw2fZLvfQioZ7Zl-35" target="DiCDhZw2fZLvfQioZ7Zl-63" edge="1">
          <mxGeometry width="50" height="50" relative="1" as="geometry">
            <mxPoint x="1670" y="1400" as="sourcePoint" />
            <mxPoint x="2000" y="1350" as="targetPoint" />
          </mxGeometry>
        </mxCell>
        <mxCell id="DiCDhZw2fZLvfQioZ7Zl-65" value="getId()" style="text;html=1;align=center;verticalAlign=middle;whiteSpace=wrap;rounded=0;fontFamily=Helvetica;fontSize=12;fontColor=default;" parent="1" vertex="1">
          <mxGeometry x="2040" y="1370" width="60" height="30" as="geometry" />
        </mxCell>
        <mxCell id="DiCDhZw2fZLvfQioZ7Zl-66" value="aFlight" style="text;html=1;align=center;verticalAlign=middle;whiteSpace=wrap;rounded=0;fontFamily=Helvetica;fontSize=12;fontColor=default;" parent="1" vertex="1">
          <mxGeometry x="1810" y="1290" width="60" height="30" as="geometry" />
        </mxCell>
        <mxCell id="DiCDhZw2fZLvfQioZ7Zl-68" value="" style="endArrow=classic;html=1;rounded=0;fontFamily=Helvetica;fontSize=12;fontColor=default;exitX=0;exitY=1;exitDx=0;exitDy=0;dashed=1;" parent="1" source="DiCDhZw2fZLvfQioZ7Zl-63" edge="1">
          <mxGeometry width="50" height="50" relative="1" as="geometry">
            <mxPoint x="1840" y="1350" as="sourcePoint" />
            <mxPoint x="1640" y="1480" as="targetPoint" />
          </mxGeometry>
        </mxCell>
        <mxCell id="DiCDhZw2fZLvfQioZ7Zl-69" value="aString" style="text;html=1;align=center;verticalAlign=middle;whiteSpace=wrap;rounded=0;fontFamily=Helvetica;fontSize=12;fontColor=default;" parent="1" vertex="1">
          <mxGeometry x="2039.9999999999995" y="1450" width="60" height="30" as="geometry" />
        </mxCell>
        <mxCell id="DiCDhZw2fZLvfQioZ7Zl-70" value="" style="endArrow=classic;html=1;rounded=0;fontFamily=Helvetica;fontSize=12;fontColor=default;exitX=1;exitY=0;exitDx=0;exitDy=0;" parent="1" edge="1">
          <mxGeometry width="50" height="50" relative="1" as="geometry">
            <mxPoint x="1639.5" y="999.5" as="sourcePoint" />
            <mxPoint x="2959.5" y="999.5" as="targetPoint" />
          </mxGeometry>
        </mxCell>
        <mxCell id="DiCDhZw2fZLvfQioZ7Zl-71" value="" style="endArrow=classic;html=1;rounded=0;fontFamily=Helvetica;fontSize=12;fontColor=default;entryX=0;entryY=0;entryDx=0;entryDy=0;exitX=1.005;exitY=0.246;exitDx=0;exitDy=0;exitPerimeter=0;" parent="1" source="DiCDhZw2fZLvfQioZ7Zl-35" target="DiCDhZw2fZLvfQioZ7Zl-72" edge="1">
          <mxGeometry width="50" height="50" relative="1" as="geometry">
            <mxPoint x="1680" y="1560" as="sourcePoint" />
            <mxPoint x="3000" y="1560" as="targetPoint" />
          </mxGeometry>
        </mxCell>
        <mxCell id="DiCDhZw2fZLvfQioZ7Zl-72" value="" style="rounded=0;whiteSpace=wrap;html=1;strokeColor=default;align=center;verticalAlign=middle;fontFamily=Helvetica;fontSize=12;fontColor=default;fillColor=default;" parent="1" vertex="1">
          <mxGeometry x="3000" y="1560" width="80" height="1120" as="geometry" />
        </mxCell>
        <mxCell id="DiCDhZw2fZLvfQioZ7Zl-73" value="" style="endArrow=none;dashed=1;html=1;rounded=0;fontFamily=Helvetica;fontSize=12;fontColor=default;exitX=0.5;exitY=0;exitDx=0;exitDy=0;entryX=0.5;entryY=1;entryDx=0;entryDy=0;" parent="1" source="DiCDhZw2fZLvfQioZ7Zl-72" target="DiCDhZw2fZLvfQioZ7Zl-40" edge="1">
          <mxGeometry width="50" height="50" relative="1" as="geometry">
            <mxPoint x="3120" y="1360" as="sourcePoint" />
            <mxPoint x="3040" y="1090" as="targetPoint" />
          </mxGeometry>
        </mxCell>
        <mxCell id="DiCDhZw2fZLvfQioZ7Zl-74" value="" style="shape=card;whiteSpace=wrap;html=1;rounded=0;strokeColor=default;align=center;verticalAlign=middle;fontFamily=Helvetica;fontSize=12;fontColor=default;fillColor=default;rotation=-180;size=20;" parent="1" vertex="1">
          <mxGeometry x="1400" y="1600" width="115" height="80" as="geometry" />
        </mxCell>
        <mxCell id="DiCDhZw2fZLvfQioZ7Zl-75" value="ALT" style="text;html=1;align=center;verticalAlign=middle;whiteSpace=wrap;rounded=0;fontFamily=Helvetica;fontSize=12;fontColor=default;" parent="1" vertex="1">
          <mxGeometry x="1427.5" y="1625" width="60" height="30" as="geometry" />
        </mxCell>
        <mxCell id="DiCDhZw2fZLvfQioZ7Zl-77" value="ConnessioneDatabase" style="whiteSpace=wrap;html=1;aspect=fixed;rounded=0;strokeColor=default;align=center;verticalAlign=middle;fontFamily=Helvetica;fontSize=12;fontColor=default;fillColor=default;" parent="1" vertex="1">
          <mxGeometry x="3440" y="160" width="160" height="160" as="geometry" />
        </mxCell>
        <mxCell id="DiCDhZw2fZLvfQioZ7Zl-78" value="" style="endArrow=none;dashed=1;html=1;rounded=0;fontFamily=Helvetica;fontSize=12;fontColor=default;exitX=0.5;exitY=0;exitDx=0;exitDy=0;entryX=0.5;entryY=1;entryDx=0;entryDy=0;" parent="1" source="DiCDhZw2fZLvfQioZ7Zl-79" target="DiCDhZw2fZLvfQioZ7Zl-77" edge="1">
          <mxGeometry width="50" height="50" relative="1" as="geometry">
            <mxPoint x="3520" y="1720" as="sourcePoint" />
            <mxPoint x="3460" y="440" as="targetPoint" />
          </mxGeometry>
        </mxCell>
        <mxCell id="DiCDhZw2fZLvfQioZ7Zl-79" value="" style="rounded=0;whiteSpace=wrap;html=1;strokeColor=default;align=center;verticalAlign=middle;fontFamily=Helvetica;fontSize=12;fontColor=default;fillColor=default;" parent="1" vertex="1">
          <mxGeometry x="3480" y="1720" width="80" height="400" as="geometry" />
        </mxCell>
        <mxCell id="DiCDhZw2fZLvfQioZ7Zl-80" value="" style="endArrow=classic;html=1;rounded=0;fontFamily=Helvetica;fontSize=12;fontColor=default;entryX=0;entryY=0;entryDx=0;entryDy=0;exitX=1.004;exitY=0.143;exitDx=0;exitDy=0;exitPerimeter=0;" parent="1" source="DiCDhZw2fZLvfQioZ7Zl-72" target="DiCDhZw2fZLvfQioZ7Zl-79" edge="1">
          <mxGeometry width="50" height="50" relative="1" as="geometry">
            <mxPoint x="3120" y="1720" as="sourcePoint" />
            <mxPoint x="3590" y="1610" as="targetPoint" />
          </mxGeometry>
        </mxCell>
        <mxCell id="DiCDhZw2fZLvfQioZ7Zl-81" value="getInstance()" style="text;html=1;align=center;verticalAlign=middle;whiteSpace=wrap;rounded=0;fontFamily=Helvetica;fontSize=12;fontColor=default;" parent="1" vertex="1">
          <mxGeometry x="3240" y="1690" width="80" height="30" as="geometry" />
        </mxCell>
        <mxCell id="DiCDhZw2fZLvfQioZ7Zl-83" value="" style="shape=card;whiteSpace=wrap;html=1;rounded=0;strokeColor=default;align=center;verticalAlign=middle;fontFamily=Helvetica;fontSize=12;fontColor=default;fillColor=default;rotation=-180;size=20;" parent="1" vertex="1">
          <mxGeometry x="2840" y="1800" width="115" height="80" as="geometry" />
        </mxCell>
        <mxCell id="DiCDhZw2fZLvfQioZ7Zl-84" value="ALT" style="text;html=1;align=center;verticalAlign=middle;whiteSpace=wrap;rounded=0;fontFamily=Helvetica;fontSize=12;fontColor=default;" parent="1" vertex="1">
          <mxGeometry x="2867.5" y="1825" width="60" height="30" as="geometry" />
        </mxCell>
        <mxCell id="DiCDhZw2fZLvfQioZ7Zl-86" value="&lt;div style=&quot;background-color: rgb(255, 255, 255);&quot;&gt;&lt;pre style=&quot;font-family: &amp;quot;JetBrains Mono&amp;quot;, monospace;&quot;&gt;&lt;span style=&quot;font-style: italic; color: rgb(135, 16, 148);&quot;&gt;&lt;font style=&quot;color: rgb(0, 0, 0);&quot;&gt;[&lt;/font&gt;&lt;/span&gt;&lt;span style=&quot;color: rgb(135, 16, 148); font-style: italic;&quot;&gt;instance &lt;/span&gt;&lt;font color=&quot;#080808&quot;&gt;== &lt;/font&gt;&lt;span style=&quot;color: rgb(0, 51, 179);&quot;&gt;null &lt;/span&gt;&lt;font color=&quot;#080808&quot;&gt;|| &lt;/font&gt;&lt;span style=&quot;color: rgb(135, 16, 148); font-style: italic;&quot;&gt;instance&lt;/span&gt;&lt;font color=&quot;#080808&quot;&gt;.&lt;/font&gt;&lt;span style=&quot;color: rgb(135, 16, 148);&quot;&gt;connection&lt;/span&gt;&lt;font color=&quot;#080808&quot;&gt;.isClosed()]&lt;/font&gt;&lt;/pre&gt;&lt;/div&gt;" style="text;html=1;align=center;verticalAlign=middle;whiteSpace=wrap;rounded=0;fontFamily=Helvetica;fontSize=12;fontColor=default;" parent="1" vertex="1">
          <mxGeometry x="3340" y="1820" width="360" height="40" as="geometry" />
        </mxCell>
        <mxCell id="DiCDhZw2fZLvfQioZ7Zl-87" value="another&lt;div&gt;ConnessioneDatabase&lt;/div&gt;" style="whiteSpace=wrap;html=1;aspect=fixed;rounded=0;strokeColor=default;align=center;verticalAlign=middle;fontFamily=Helvetica;fontSize=12;fontColor=default;fillColor=default;" parent="1" vertex="1">
          <mxGeometry x="3920" y="1840" width="160" height="160" as="geometry" />
        </mxCell>
        <mxCell id="DiCDhZw2fZLvfQioZ7Zl-88" value="" style="endArrow=classic;html=1;rounded=0;fontFamily=Helvetica;fontSize=12;fontColor=default;entryX=0;entryY=0.5;entryDx=0;entryDy=0;exitX=1;exitY=0.5;exitDx=0;exitDy=0;" parent="1" source="DiCDhZw2fZLvfQioZ7Zl-79" target="DiCDhZw2fZLvfQioZ7Zl-87" edge="1">
          <mxGeometry width="50" height="50" relative="1" as="geometry">
            <mxPoint x="3600" y="1920" as="sourcePoint" />
            <mxPoint x="3800" y="1710" as="targetPoint" />
          </mxGeometry>
        </mxCell>
        <mxCell id="DiCDhZw2fZLvfQioZ7Zl-89" value="&lt;div style=&quot;color: rgb(8, 8, 8);&quot;&gt;&lt;pre style=&quot;font-family: &amp;quot;JetBrains Mono&amp;quot;, monospace;&quot;&gt;&lt;span&gt;&lt;span style=&quot;color: rgb(0, 51, 179);&quot;&gt;new &lt;/span&gt;ConnessioneDatabase()&lt;/span&gt;&lt;/pre&gt;&lt;/div&gt;" style="text;html=1;align=center;verticalAlign=middle;whiteSpace=wrap;rounded=0;fontFamily=Helvetica;fontSize=12;fontColor=default;" parent="1" vertex="1">
          <mxGeometry x="3730" y="1890" width="60" height="30" as="geometry" />
        </mxCell>
        <mxCell id="DiCDhZw2fZLvfQioZ7Zl-91" value="" style="endArrow=classic;html=1;rounded=0;fontFamily=Helvetica;fontSize=12;fontColor=default;exitX=0;exitY=1;exitDx=0;exitDy=0;dashed=1;entryX=1;entryY=0.5;entryDx=0;entryDy=0;" parent="1" source="DiCDhZw2fZLvfQioZ7Zl-79" target="DiCDhZw2fZLvfQioZ7Zl-72" edge="1">
          <mxGeometry width="50" height="50" relative="1" as="geometry">
            <mxPoint x="3390" y="2180" as="sourcePoint" />
            <mxPoint x="3120" y="2120" as="targetPoint" />
          </mxGeometry>
        </mxCell>
        <mxCell id="DiCDhZw2fZLvfQioZ7Zl-92" value="anotherConnessioneDatabase" style="text;html=1;align=center;verticalAlign=middle;whiteSpace=wrap;rounded=0;fontFamily=Helvetica;fontSize=12;fontColor=default;" parent="1" vertex="1">
          <mxGeometry x="3160" y="2090" width="240" height="30" as="geometry" />
        </mxCell>
        <mxCell id="DiCDhZw2fZLvfQioZ7Zl-93" value="" style="endArrow=classic;html=1;rounded=0;fontFamily=Helvetica;fontSize=12;fontColor=default;entryX=0;entryY=0;entryDx=0;entryDy=0;exitX=1.003;exitY=0.571;exitDx=0;exitDy=0;exitPerimeter=0;" parent="1" source="DiCDhZw2fZLvfQioZ7Zl-72" target="DiCDhZw2fZLvfQioZ7Zl-95" edge="1">
          <mxGeometry width="50" height="50" relative="1" as="geometry">
            <mxPoint x="3120" y="2200" as="sourcePoint" />
            <mxPoint x="3960" y="2200" as="targetPoint" />
          </mxGeometry>
        </mxCell>
        <mxCell id="DiCDhZw2fZLvfQioZ7Zl-95" value="" style="rounded=0;whiteSpace=wrap;html=1;strokeColor=default;align=center;verticalAlign=middle;fontFamily=Helvetica;fontSize=12;fontColor=default;fillColor=default;" parent="1" vertex="1">
          <mxGeometry x="3960" y="2200" width="80" height="80" as="geometry" />
        </mxCell>
        <mxCell id="DiCDhZw2fZLvfQioZ7Zl-96" value="" style="endArrow=none;dashed=1;html=1;rounded=0;fontFamily=Helvetica;fontSize=12;fontColor=default;entryX=0.5;entryY=1;entryDx=0;entryDy=0;exitX=0.5;exitY=0;exitDx=0;exitDy=0;" parent="1" source="DiCDhZw2fZLvfQioZ7Zl-95" target="DiCDhZw2fZLvfQioZ7Zl-87" edge="1">
          <mxGeometry width="50" height="50" relative="1" as="geometry">
            <mxPoint x="3760" y="2230" as="sourcePoint" />
            <mxPoint x="3810" y="2180" as="targetPoint" />
          </mxGeometry>
        </mxCell>
        <mxCell id="DiCDhZw2fZLvfQioZ7Zl-97" value="getConnection()" style="text;html=1;align=center;verticalAlign=middle;whiteSpace=wrap;rounded=0;fontFamily=Helvetica;fontSize=12;fontColor=default;" parent="1" vertex="1">
          <mxGeometry x="3440" y="2170" width="160" height="30" as="geometry" />
        </mxCell>
        <mxCell id="DiCDhZw2fZLvfQioZ7Zl-98" value="" style="endArrow=classic;html=1;rounded=0;fontFamily=Helvetica;fontSize=12;fontColor=default;exitX=0;exitY=1;exitDx=0;exitDy=0;dashed=1;entryX=1;entryY=0.643;entryDx=0;entryDy=0;entryPerimeter=0;" parent="1" source="DiCDhZw2fZLvfQioZ7Zl-95" target="DiCDhZw2fZLvfQioZ7Zl-72" edge="1">
          <mxGeometry width="50" height="50" relative="1" as="geometry">
            <mxPoint x="3770" y="2130" as="sourcePoint" />
            <mxPoint x="3120" y="2280" as="targetPoint" />
          </mxGeometry>
        </mxCell>
        <mxCell id="DiCDhZw2fZLvfQioZ7Zl-99" value="aConnection" style="text;html=1;align=center;verticalAlign=middle;whiteSpace=wrap;rounded=0;fontFamily=Helvetica;fontSize=12;fontColor=default;" parent="1" vertex="1">
          <mxGeometry x="3480" y="2250" width="80" height="30" as="geometry" />
        </mxCell>
        <mxCell id="DiCDhZw2fZLvfQioZ7Zl-100" value="" style="endArrow=none;dashed=1;html=1;rounded=0;fontFamily=Helvetica;fontSize=12;fontColor=default;" parent="1" edge="1">
          <mxGeometry width="50" height="50" relative="1" as="geometry">
            <mxPoint x="2840" y="2320" as="sourcePoint" />
            <mxPoint x="4120" y="2320" as="targetPoint" />
          </mxGeometry>
        </mxCell>
        <mxCell id="DiCDhZw2fZLvfQioZ7Zl-101" value="" style="rounded=0;whiteSpace=wrap;html=1;strokeColor=default;align=center;verticalAlign=middle;fontFamily=Helvetica;fontSize=12;fontColor=default;fillColor=default;" parent="1" vertex="1">
          <mxGeometry x="3480" y="2320" width="80" height="80" as="geometry" />
        </mxCell>
        <mxCell id="DiCDhZw2fZLvfQioZ7Zl-104" value="" style="endArrow=classic;html=1;rounded=0;fontFamily=Helvetica;fontSize=12;fontColor=default;exitX=0;exitY=1;exitDx=0;exitDy=0;dashed=1;entryX=1;entryY=0.75;entryDx=0;entryDy=0;" parent="1" source="DiCDhZw2fZLvfQioZ7Zl-101" target="DiCDhZw2fZLvfQioZ7Zl-72" edge="1">
          <mxGeometry width="50" height="50" relative="1" as="geometry">
            <mxPoint x="3540" y="2360" as="sourcePoint" />
            <mxPoint x="3120" y="2400" as="targetPoint" />
          </mxGeometry>
        </mxCell>
        <mxCell id="DiCDhZw2fZLvfQioZ7Zl-105" value="ConnessioneDatabase" style="text;html=1;align=center;verticalAlign=middle;whiteSpace=wrap;rounded=0;fontFamily=Helvetica;fontSize=12;fontColor=default;" parent="1" vertex="1">
          <mxGeometry x="3200" y="2370" width="160" height="30" as="geometry" />
        </mxCell>
        <mxCell id="DiCDhZw2fZLvfQioZ7Zl-106" value="" style="endArrow=classic;html=1;rounded=0;fontFamily=Helvetica;fontSize=12;fontColor=default;entryX=0;entryY=0;entryDx=0;entryDy=0;exitX=1;exitY=0.822;exitDx=0;exitDy=0;exitPerimeter=0;" parent="1" source="DiCDhZw2fZLvfQioZ7Zl-72" target="DiCDhZw2fZLvfQioZ7Zl-107" edge="1">
          <mxGeometry width="50" height="50" relative="1" as="geometry">
            <mxPoint x="3120" y="2480" as="sourcePoint" />
            <mxPoint x="3480" y="2480" as="targetPoint" />
          </mxGeometry>
        </mxCell>
        <mxCell id="DiCDhZw2fZLvfQioZ7Zl-107" value="" style="rounded=0;whiteSpace=wrap;html=1;strokeColor=default;align=center;verticalAlign=middle;fontFamily=Helvetica;fontSize=12;fontColor=default;fillColor=default;" parent="1" vertex="1">
          <mxGeometry x="3480" y="2480" width="80" height="80" as="geometry" />
        </mxCell>
        <mxCell id="DiCDhZw2fZLvfQioZ7Zl-108" value="" style="endArrow=classic;html=1;rounded=0;fontFamily=Helvetica;fontSize=12;fontColor=default;exitX=0;exitY=1;exitDx=0;exitDy=0;dashed=1;entryX=0.994;entryY=0.893;entryDx=0;entryDy=0;entryPerimeter=0;" parent="1" source="DiCDhZw2fZLvfQioZ7Zl-107" target="DiCDhZw2fZLvfQioZ7Zl-72" edge="1">
          <mxGeometry width="50" height="50" relative="1" as="geometry">
            <mxPoint x="4230" y="2280" as="sourcePoint" />
            <mxPoint x="3120" y="2560" as="targetPoint" />
          </mxGeometry>
        </mxCell>
        <mxCell id="DiCDhZw2fZLvfQioZ7Zl-109" value="getConnection()" style="text;html=1;align=center;verticalAlign=middle;whiteSpace=wrap;rounded=0;fontFamily=Helvetica;fontSize=12;fontColor=default;" parent="1" vertex="1">
          <mxGeometry x="3200" y="2450" width="160" height="30" as="geometry" />
        </mxCell>
        <mxCell id="DiCDhZw2fZLvfQioZ7Zl-110" value="aConnection" style="text;html=1;align=center;verticalAlign=middle;whiteSpace=wrap;rounded=0;fontFamily=Helvetica;fontSize=12;fontColor=default;" parent="1" vertex="1">
          <mxGeometry x="3240" y="2530" width="80" height="30" as="geometry" />
        </mxCell>
        <mxCell id="DiCDhZw2fZLvfQioZ7Zl-112" value="[else]" style="text;html=1;align=center;verticalAlign=middle;whiteSpace=wrap;rounded=0;fontFamily=Helvetica;fontSize=12;fontColor=default;" parent="1" vertex="1">
          <mxGeometry x="3400" y="2345" width="80" height="30" as="geometry" />
        </mxCell>
        <mxCell id="DiCDhZw2fZLvfQioZ7Zl-113" value="" style="endArrow=classic;html=1;rounded=0;fontFamily=Helvetica;fontSize=12;fontColor=default;exitX=0;exitY=1;exitDx=0;exitDy=0;dashed=1;entryX=1.002;entryY=0.677;entryDx=0;entryDy=0;entryPerimeter=0;" parent="1" source="DiCDhZw2fZLvfQioZ7Zl-72" target="DiCDhZw2fZLvfQioZ7Zl-35" edge="1">
          <mxGeometry width="50" height="50" relative="1" as="geometry">
            <mxPoint x="2720" y="2480" as="sourcePoint" />
            <mxPoint x="1680" y="2679" as="targetPoint" />
          </mxGeometry>
        </mxCell>
        <mxCell id="DiCDhZw2fZLvfQioZ7Zl-114" value="" style="rounded=0;whiteSpace=wrap;html=1;strokeColor=default;align=center;verticalAlign=middle;fontFamily=Helvetica;fontSize=12;fontColor=default;fillColor=default;" parent="1" vertex="1">
          <mxGeometry x="3000" y="2760" width="80" height="160" as="geometry" />
        </mxCell>
        <mxCell id="DiCDhZw2fZLvfQioZ7Zl-115" value="" style="endArrow=none;dashed=1;html=1;rounded=0;fontFamily=Helvetica;fontSize=12;fontColor=default;" parent="1" edge="1">
          <mxGeometry width="50" height="50" relative="1" as="geometry">
            <mxPoint x="1400" y="2720" as="sourcePoint" />
            <mxPoint x="4560" y="2720" as="targetPoint" />
          </mxGeometry>
        </mxCell>
        <mxCell id="DiCDhZw2fZLvfQioZ7Zl-116" value="" style="endArrow=classic;html=1;rounded=0;fontFamily=Helvetica;fontSize=12;fontColor=default;exitX=0;exitY=1;exitDx=0;exitDy=0;dashed=1;entryX=0.998;entryY=0.769;entryDx=0;entryDy=0;entryPerimeter=0;" parent="1" source="DiCDhZw2fZLvfQioZ7Zl-114" target="DiCDhZw2fZLvfQioZ7Zl-35" edge="1">
          <mxGeometry width="50" height="50" relative="1" as="geometry">
            <mxPoint x="3410" y="3001" as="sourcePoint" />
            <mxPoint x="1680" y="2920" as="targetPoint" />
          </mxGeometry>
        </mxCell>
        <mxCell id="DiCDhZw2fZLvfQioZ7Zl-117" value="aLogger" style="whiteSpace=wrap;html=1;aspect=fixed;rounded=0;strokeColor=default;align=center;verticalAlign=middle;fontFamily=Helvetica;fontSize=12;fontColor=default;fillColor=default;" parent="1" vertex="1">
          <mxGeometry x="4400" y="160" width="160" height="160" as="geometry" />
        </mxCell>
        <mxCell id="DiCDhZw2fZLvfQioZ7Zl-118" value="" style="endArrow=none;dashed=1;html=1;rounded=0;fontFamily=Helvetica;fontSize=12;fontColor=default;entryX=0.5;entryY=1;entryDx=0;entryDy=0;" parent="1" target="DiCDhZw2fZLvfQioZ7Zl-117" edge="1">
          <mxGeometry width="50" height="50" relative="1" as="geometry">
            <mxPoint x="4480" y="2800" as="sourcePoint" />
            <mxPoint x="4480" y="340" as="targetPoint" />
          </mxGeometry>
        </mxCell>
        <mxCell id="DiCDhZw2fZLvfQioZ7Zl-119" value="" style="rounded=0;whiteSpace=wrap;html=1;strokeColor=default;align=center;verticalAlign=middle;fontFamily=Helvetica;fontSize=12;fontColor=default;fillColor=default;" parent="1" vertex="1">
          <mxGeometry x="4440" y="2800" width="80" height="80" as="geometry" />
        </mxCell>
        <mxCell id="DiCDhZw2fZLvfQioZ7Zl-120" value="" style="endArrow=classic;html=1;rounded=0;fontFamily=Helvetica;fontSize=12;fontColor=default;exitX=1;exitY=0.25;exitDx=0;exitDy=0;entryX=0;entryY=0;entryDx=0;entryDy=0;" parent="1" source="DiCDhZw2fZLvfQioZ7Zl-114" target="DiCDhZw2fZLvfQioZ7Zl-119" edge="1">
          <mxGeometry width="50" height="50" relative="1" as="geometry">
            <mxPoint x="4160" y="3170" as="sourcePoint" />
            <mxPoint x="4210" y="3120" as="targetPoint" />
          </mxGeometry>
        </mxCell>
        <mxCell id="DiCDhZw2fZLvfQioZ7Zl-121" value="&lt;div style=&quot;color: rgb(8, 8, 8);&quot;&gt;&lt;pre style=&quot;font-family: &amp;quot;JetBrains Mono&amp;quot;, monospace;&quot;&gt;&lt;span&gt;&lt;span style=&quot;color: rgb(135, 16, 148); font-style: italic;&quot;&gt;LOGGER&lt;/span&gt;.log(&lt;span style=&quot;color: rgb(0, 0, 0);&quot;&gt;Level&lt;/span&gt;.&lt;span style=&quot;color: rgb(135, 16, 148); font-style: italic;&quot;&gt;SEVERE&lt;/span&gt;, &lt;span style=&quot;color: rgb(0, 0, 0);&quot;&gt;sqle&lt;/span&gt;.getSQLState())&lt;/span&gt;&lt;/pre&gt;&lt;/div&gt;" style="text;html=1;align=center;verticalAlign=middle;whiteSpace=wrap;rounded=0;fontFamily=Helvetica;fontSize=12;fontColor=default;" parent="1" vertex="1">
          <mxGeometry x="3600" y="2770" width="320" height="30" as="geometry" />
        </mxCell>
        <mxCell id="DiCDhZw2fZLvfQioZ7Zl-122" value="" style="endArrow=classic;html=1;rounded=0;fontFamily=Helvetica;fontSize=12;fontColor=default;exitX=0;exitY=1;exitDx=0;exitDy=0;entryX=1;entryY=0.75;entryDx=0;entryDy=0;dashed=1;" parent="1" source="DiCDhZw2fZLvfQioZ7Zl-119" target="DiCDhZw2fZLvfQioZ7Zl-114" edge="1">
          <mxGeometry width="50" height="50" relative="1" as="geometry">
            <mxPoint x="3830" y="2680" as="sourcePoint" />
            <mxPoint x="3880" y="2630" as="targetPoint" />
          </mxGeometry>
        </mxCell>
        <mxCell id="DiCDhZw2fZLvfQioZ7Zl-123" value="void" style="text;html=1;align=center;verticalAlign=middle;whiteSpace=wrap;rounded=0;fontFamily=Helvetica;fontSize=12;fontColor=default;" parent="1" vertex="1">
          <mxGeometry x="3730" y="2850" width="60" height="30" as="geometry" />
        </mxCell>
        <mxCell id="DiCDhZw2fZLvfQioZ7Zl-124" value="" style="endArrow=none;dashed=1;html=1;rounded=0;fontFamily=Helvetica;fontSize=12;fontColor=default;entryX=0.5;entryY=1;entryDx=0;entryDy=0;exitX=0.5;exitY=0;exitDx=0;exitDy=0;" parent="1" source="DiCDhZw2fZLvfQioZ7Zl-114" target="DiCDhZw2fZLvfQioZ7Zl-72" edge="1">
          <mxGeometry width="50" height="50" relative="1" as="geometry">
            <mxPoint x="3090" y="2720" as="sourcePoint" />
            <mxPoint x="3140" y="2670" as="targetPoint" />
          </mxGeometry>
        </mxCell>
        <mxCell id="DiCDhZw2fZLvfQioZ7Zl-126" value="&lt;div style=&quot;color: rgb(8, 8, 8);&quot;&gt;&lt;pre style=&quot;font-family: &amp;quot;JetBrains Mono&amp;quot;, monospace;&quot;&gt;&lt;span style=&quot;color: rgb(0, 0, 0);&quot;&gt;[SQLException sqle]&lt;/span&gt;&lt;/pre&gt;&lt;/div&gt;" style="text;html=1;align=center;verticalAlign=middle;whiteSpace=wrap;rounded=0;fontFamily=Helvetica;fontSize=12;fontColor=default;" parent="1" vertex="1">
          <mxGeometry x="1400" y="2740" width="160" height="40" as="geometry" />
        </mxCell>
        <mxCell id="DiCDhZw2fZLvfQioZ7Zl-129" value="" style="shape=card;whiteSpace=wrap;html=1;rounded=0;strokeColor=default;align=center;verticalAlign=middle;fontFamily=Helvetica;fontSize=12;fontColor=default;fillColor=default;rotation=-180;size=20;" parent="1" vertex="1">
          <mxGeometry x="440" y="3000" width="115" height="80" as="geometry" />
        </mxCell>
        <mxCell id="DiCDhZw2fZLvfQioZ7Zl-130" value="ALT" style="text;html=1;align=center;verticalAlign=middle;whiteSpace=wrap;rounded=0;fontFamily=Helvetica;fontSize=12;fontColor=default;" parent="1" vertex="1">
          <mxGeometry x="467.5" y="3025" width="60" height="30" as="geometry" />
        </mxCell>
        <mxCell id="DiCDhZw2fZLvfQioZ7Zl-131" value="&lt;div style=&quot;background-color: rgb(255, 255, 255);&quot;&gt;&lt;pre style=&quot;font-family: &amp;quot;JetBrains Mono&amp;quot;, monospace;&quot;&gt;&lt;span style=&quot;color: rgb(0, 0, 0);&quot;&gt;[idGate &lt;/span&gt;&lt;font color=&quot;#080808&quot;&gt;!= -&lt;/font&gt;&lt;span style=&quot;color: rgb(23, 80, 235);&quot;&gt;1&lt;/span&gt;&lt;span style=&quot;color: rgb(23, 80, 235);&quot;&gt;&lt;font style=&quot;color: rgb(0, 0, 0);&quot;&gt;]&lt;/font&gt;&lt;/span&gt;&lt;/pre&gt;&lt;/div&gt;" style="text;html=1;align=center;verticalAlign=middle;whiteSpace=wrap;rounded=0;fontFamily=Helvetica;fontSize=12;fontColor=default;" parent="1" vertex="1">
          <mxGeometry x="1540" y="3020" width="120" height="40" as="geometry" />
        </mxCell>
        <mxCell id="DiCDhZw2fZLvfQioZ7Zl-132" value="" style="endArrow=classic;html=1;rounded=0;fontFamily=Helvetica;fontSize=12;fontColor=default;exitX=0;exitY=0.846;exitDx=0;exitDy=0;exitPerimeter=0;" parent="1" source="DiCDhZw2fZLvfQioZ7Zl-35" edge="1">
          <mxGeometry width="50" height="50" relative="1" as="geometry">
            <mxPoint x="1520" y="3120" as="sourcePoint" />
            <mxPoint x="200" y="3119" as="targetPoint" />
          </mxGeometry>
        </mxCell>
        <mxCell id="DiCDhZw2fZLvfQioZ7Zl-133" value="&lt;div style=&quot;color: rgb(8, 8, 8);&quot;&gt;&lt;pre style=&quot;font-family: &amp;quot;JetBrains Mono&amp;quot;, monospace;&quot;&gt;&lt;span&gt;setText(&lt;span style=&quot;color: rgb(6, 125, 23);&quot;&gt;&quot;GATE: &quot; &lt;/span&gt;+ &lt;span style=&quot;color: rgb(0, 0, 0);&quot;&gt;idGate&lt;/span&gt;)&lt;/span&gt;&lt;/pre&gt;&lt;/div&gt;" style="text;html=1;align=center;verticalAlign=middle;whiteSpace=wrap;rounded=0;fontFamily=Helvetica;fontSize=12;fontColor=default;" parent="1" vertex="1">
          <mxGeometry x="760" y="3090" width="240" height="30" as="geometry" />
        </mxCell>
        <mxCell id="DiCDhZw2fZLvfQioZ7Zl-134" value="" style="endArrow=classic;html=1;rounded=0;fontFamily=Helvetica;fontSize=12;fontColor=default;dashed=1;entryX=0;entryY=0.877;entryDx=0;entryDy=0;entryPerimeter=0;" parent="1" target="DiCDhZw2fZLvfQioZ7Zl-35" edge="1">
          <mxGeometry width="50" height="50" relative="1" as="geometry">
            <mxPoint x="200" y="3200" as="sourcePoint" />
            <mxPoint x="1550" y="3200.2000000000003" as="targetPoint" />
          </mxGeometry>
        </mxCell>
        <mxCell id="DiCDhZw2fZLvfQioZ7Zl-135" value="void" style="text;html=1;align=center;verticalAlign=middle;whiteSpace=wrap;rounded=0;fontFamily=Helvetica;fontSize=12;fontColor=default;" parent="1" vertex="1">
          <mxGeometry x="850" y="3170.0000000000005" width="60" height="30" as="geometry" />
        </mxCell>
        <mxCell id="DiCDhZw2fZLvfQioZ7Zl-138" value="[else]" style="text;html=1;align=center;verticalAlign=middle;whiteSpace=wrap;rounded=0;fontFamily=Helvetica;fontSize=12;fontColor=default;" parent="1" vertex="1">
          <mxGeometry x="520" y="3260" width="80" height="40" as="geometry" />
        </mxCell>
        <mxCell id="DiCDhZw2fZLvfQioZ7Zl-139" value="" style="endArrow=none;dashed=1;html=1;rounded=0;fontFamily=Helvetica;fontSize=12;fontColor=default;" parent="1" edge="1">
          <mxGeometry width="50" height="50" relative="1" as="geometry">
            <mxPoint x="440" y="3240" as="sourcePoint" />
            <mxPoint x="5080" y="3240" as="targetPoint" />
          </mxGeometry>
        </mxCell>
        <mxCell id="DiCDhZw2fZLvfQioZ7Zl-142" value="aGateChooser" style="whiteSpace=wrap;html=1;aspect=fixed;rounded=0;strokeColor=default;align=center;verticalAlign=middle;fontFamily=Helvetica;fontSize=12;fontColor=default;fillColor=default;" parent="1" vertex="1">
          <mxGeometry x="4880" y="3280" width="160" height="160" as="geometry" />
        </mxCell>
        <mxCell id="DiCDhZw2fZLvfQioZ7Zl-143" value="" style="endArrow=classic;html=1;rounded=0;fontFamily=Helvetica;fontSize=12;fontColor=default;entryX=0;entryY=0.5;entryDx=0;entryDy=0;" parent="1" target="DiCDhZw2fZLvfQioZ7Zl-142" edge="1">
          <mxGeometry width="50" height="50" relative="1" as="geometry">
            <mxPoint x="1640" y="3360" as="sourcePoint" />
            <mxPoint x="3941.3333333333335" y="3320" as="targetPoint" />
          </mxGeometry>
        </mxCell>
        <mxCell id="DiCDhZw2fZLvfQioZ7Zl-145" value="&lt;div style=&quot;color: rgb(8, 8, 8);&quot;&gt;&lt;pre style=&quot;font-family: &amp;quot;JetBrains Mono&amp;quot;, monospace;&quot;&gt;&lt;span&gt;&lt;span style=&quot;color: rgb(0, 51, 179);&quot;&gt;new &lt;/span&gt;GateChooser(&lt;span style=&quot;color: rgb(0, 0, 0);&quot;&gt;controller&lt;/span&gt;, &lt;span style=&quot;color: rgb(135, 16, 148);&quot;&gt;gateButton&lt;/span&gt;)&lt;/span&gt;&lt;/pre&gt;&lt;/div&gt;" style="text;html=1;align=center;verticalAlign=middle;whiteSpace=wrap;rounded=0;fontFamily=Helvetica;fontSize=12;fontColor=default;" parent="1" vertex="1">
          <mxGeometry x="3120" y="3330" width="280" height="30" as="geometry" />
        </mxCell>
        <mxCell id="DiCDhZw2fZLvfQioZ7Zl-146" value="" style="endArrow=classic;html=1;rounded=0;fontFamily=Helvetica;fontSize=12;fontColor=default;exitX=0;exitY=0.969;exitDx=0;exitDy=0;exitPerimeter=0;entryX=0.99;entryY=0.874;entryDx=0;entryDy=0;entryPerimeter=0;" parent="1" source="DiCDhZw2fZLvfQioZ7Zl-35" target="DiCDhZw2fZLvfQioZ7Zl-5" edge="1">
          <mxGeometry width="50" height="50" relative="1" as="geometry">
            <mxPoint x="1550" y="3440" as="sourcePoint" />
            <mxPoint x="690" y="3442" as="targetPoint" />
          </mxGeometry>
        </mxCell>
        <mxCell id="DiCDhZw2fZLvfQioZ7Zl-147" value="&lt;pre style=&quot;forced-color-adjust: none; color: rgb(8, 8, 8); font-size: 12px; font-style: normal; font-variant-ligatures: normal; font-variant-caps: normal; font-weight: 400; letter-spacing: normal; orphans: 2; text-align: center; text-indent: 0px; text-transform: none; widows: 2; word-spacing: 0px; -webkit-text-stroke-width: 0px; text-decoration-thickness: initial; text-decoration-style: initial; text-decoration-color: initial; font-family: &amp;quot;JetBrains Mono&amp;quot;, monospace;&quot;&gt;setGateChooser(&lt;span style=&quot;forced-color-adjust: none; color: rgb(0, 51, 179);&quot;&gt;new &lt;/span&gt;GateChooser(&lt;span style=&quot;forced-color-adjust: none; color: rgb(0, 0, 0);&quot;&gt;controller&lt;/span&gt;, &lt;span style=&quot;forced-color-adjust: none; color: rgb(0, 0, 0);&quot;&gt;callingButton&lt;/span&gt;))&lt;/pre&gt;" style="text;html=1;align=center;verticalAlign=middle;whiteSpace=wrap;rounded=0;fontFamily=Helvetica;fontSize=12;fontColor=default;" parent="1" vertex="1">
          <mxGeometry x="920" y="3400" width="400" height="40" as="geometry" />
        </mxCell>
        <mxCell id="DiCDhZw2fZLvfQioZ7Zl-148" value="" style="endArrow=classic;html=1;rounded=0;fontFamily=Helvetica;fontSize=12;fontColor=default;exitX=0;exitY=1;exitDx=0;exitDy=0;dashed=1;" parent="1" source="DiCDhZw2fZLvfQioZ7Zl-35" edge="1">
          <mxGeometry width="50" height="50" relative="1" as="geometry">
            <mxPoint x="1551" y="3519.5999999999954" as="sourcePoint" />
            <mxPoint x="680" y="3520" as="targetPoint" />
          </mxGeometry>
        </mxCell>
        <mxCell id="DiCDhZw2fZLvfQioZ7Zl-149" value="void" style="text;html=1;align=center;verticalAlign=middle;whiteSpace=wrap;rounded=0;fontFamily=Helvetica;fontSize=12;fontColor=default;" parent="1" vertex="1">
          <mxGeometry x="1090" y="3490" width="60" height="30" as="geometry" />
        </mxCell>
        <mxCell id="DiCDhZw2fZLvfQioZ7Zl-154" value="" style="endArrow=classic;html=1;rounded=0;fontFamily=Helvetica;fontSize=12;fontColor=default;entryX=1;entryY=0;entryDx=0;entryDy=0;" parent="1" target="DiCDhZw2fZLvfQioZ7Zl-49" edge="1">
          <mxGeometry width="50" height="50" relative="1" as="geometry">
            <mxPoint x="1560" y="1079.87" as="sourcePoint" />
            <mxPoint x="1530" y="1079.87" as="targetPoint" />
          </mxGeometry>
        </mxCell>
        <mxCell id="DiCDhZw2fZLvfQioZ7Zl-155" value="[else]" style="text;html=1;align=center;verticalAlign=middle;whiteSpace=wrap;rounded=0;fontFamily=Helvetica;fontSize=12;fontColor=default;" parent="1" vertex="1">
          <mxGeometry x="440" y="3620" width="80" height="40" as="geometry" />
        </mxCell>
        <mxCell id="DiCDhZw2fZLvfQioZ7Zl-156" value="" style="endArrow=none;dashed=1;html=1;rounded=0;fontFamily=Helvetica;fontSize=12;fontColor=default;" parent="1" edge="1">
          <mxGeometry width="50" height="50" relative="1" as="geometry">
            <mxPoint x="400" y="3600" as="sourcePoint" />
            <mxPoint x="5560" y="3600" as="targetPoint" />
          </mxGeometry>
        </mxCell>
        <mxCell id="DiCDhZw2fZLvfQioZ7Zl-157" value="&lt;div&gt;another&lt;/div&gt;GateChooser" style="whiteSpace=wrap;html=1;aspect=fixed;rounded=0;strokeColor=default;align=center;verticalAlign=middle;fontFamily=Helvetica;fontSize=12;fontColor=default;fillColor=default;" parent="1" vertex="1">
          <mxGeometry x="5360" y="3640" width="160" height="160" as="geometry" />
        </mxCell>
        <mxCell id="DiCDhZw2fZLvfQioZ7Zl-158" value="" style="endArrow=classic;html=1;rounded=0;fontFamily=Helvetica;fontSize=12;fontColor=default;entryX=0;entryY=0.5;entryDx=0;entryDy=0;" parent="1" target="DiCDhZw2fZLvfQioZ7Zl-157" edge="1">
          <mxGeometry width="50" height="50" relative="1" as="geometry">
            <mxPoint x="680" y="3719.77" as="sourcePoint" />
            <mxPoint x="5350" y="3719.77" as="targetPoint" />
          </mxGeometry>
        </mxCell>
        <mxCell id="DiCDhZw2fZLvfQioZ7Zl-160" value="" style="endArrow=classic;html=1;rounded=0;fontFamily=Helvetica;fontSize=12;fontColor=default;exitX=0;exitY=1;exitDx=0;exitDy=0;entryX=0.999;entryY=0.978;entryDx=0;entryDy=0;entryPerimeter=0;dashed=1;" parent="1" source="DiCDhZw2fZLvfQioZ7Zl-5" target="DiCDhZw2fZLvfQioZ7Zl-3" edge="1">
          <mxGeometry width="50" height="50" relative="1" as="geometry">
            <mxPoint x="700" y="3880" as="sourcePoint" />
            <mxPoint x="750" y="3830" as="targetPoint" />
          </mxGeometry>
        </mxCell>
        <mxCell id="DiCDhZw2fZLvfQioZ7Zl-161" value="&lt;div style=&quot;color: rgb(8, 8, 8);&quot;&gt;&lt;pre style=&quot;font-family: &amp;quot;JetBrains Mono&amp;quot;, monospace;&quot;&gt;&lt;span&gt;&lt;span style=&quot;color: rgb(0, 51, 179);&quot;&gt;new &lt;/span&gt;GateChooser(&lt;span style=&quot;color: rgb(0, 0, 0);&quot;&gt;controller&lt;/span&gt;, &lt;span style=&quot;color: rgb(135, 16, 148);&quot;&gt;gateButton&lt;/span&gt;)&lt;/span&gt;&lt;/pre&gt;&lt;/div&gt;" style="text;html=1;align=center;verticalAlign=middle;whiteSpace=wrap;rounded=0;fontFamily=Helvetica;fontSize=12;fontColor=default;" parent="1" vertex="1">
          <mxGeometry x="2960" y="3690" width="280" height="30" as="geometry" />
        </mxCell>
        <mxCell id="DiCDhZw2fZLvfQioZ7Zl-162" value="void" style="text;html=1;align=center;verticalAlign=middle;whiteSpace=wrap;rounded=0;fontFamily=Helvetica;fontSize=12;fontColor=default;" parent="1" vertex="1">
          <mxGeometry x="360" y="3850" width="80" height="30" as="geometry" />
        </mxCell>
        <mxCell id="9YylhwKCVsvaTIbhZPHO-1" value="" style="endArrow=none;dashed=1;html=1;rounded=0;entryX=0.5;entryY=1;entryDx=0;entryDy=0;" parent="1" target="DiCDhZw2fZLvfQioZ7Zl-49" edge="1">
          <mxGeometry width="50" height="50" relative="1" as="geometry">
            <mxPoint x="1121.3333333333333" y="4040" as="sourcePoint" />
            <mxPoint x="1300" y="1080" as="targetPoint" />
          </mxGeometry>
        </mxCell>
        <mxCell id="9YylhwKCVsvaTIbhZPHO-2" value="" style="endArrow=none;dashed=1;html=1;rounded=0;entryX=0.5;entryY=1;entryDx=0;entryDy=0;" parent="1" target="DiCDhZw2fZLvfQioZ7Zl-35" edge="1">
          <mxGeometry width="50" height="50" relative="1" as="geometry">
            <mxPoint x="1600" y="4040" as="sourcePoint" />
            <mxPoint x="1390" y="3480" as="targetPoint" />
          </mxGeometry>
        </mxCell>
        <mxCell id="9YylhwKCVsvaTIbhZPHO-3" value="" style="endArrow=none;dashed=1;html=1;rounded=0;entryX=0.5;entryY=1;entryDx=0;entryDy=0;" parent="1" target="DiCDhZw2fZLvfQioZ7Zl-5" edge="1">
          <mxGeometry width="50" height="50" relative="1" as="geometry">
            <mxPoint x="640" y="4040" as="sourcePoint" />
            <mxPoint x="1390" y="3480" as="targetPoint" />
          </mxGeometry>
        </mxCell>
        <mxCell id="9YylhwKCVsvaTIbhZPHO-4" value="" style="endArrow=none;dashed=1;html=1;rounded=0;exitX=0.5;exitY=1;exitDx=0;exitDy=0;" parent="1" source="DiCDhZw2fZLvfQioZ7Zl-3" edge="1">
          <mxGeometry width="50" height="50" relative="1" as="geometry">
            <mxPoint x="1340" y="3530" as="sourcePoint" />
            <mxPoint x="160" y="4040" as="targetPoint" />
          </mxGeometry>
        </mxCell>
        <mxCell id="9YylhwKCVsvaTIbhZPHO-5" value="" style="endArrow=none;dashed=1;html=1;rounded=0;entryX=0.5;entryY=1;entryDx=0;entryDy=0;" parent="1" target="DiCDhZw2fZLvfQioZ7Zl-57" edge="1">
          <mxGeometry width="50" height="50" relative="1" as="geometry">
            <mxPoint x="2080" y="4041.176470588235" as="sourcePoint" />
            <mxPoint x="2270" y="1670" as="targetPoint" />
          </mxGeometry>
        </mxCell>
        <mxCell id="9YylhwKCVsvaTIbhZPHO-6" value="" style="endArrow=none;dashed=1;html=1;rounded=0;entryX=0.5;entryY=1;entryDx=0;entryDy=0;" parent="1" target="DiCDhZw2fZLvfQioZ7Zl-63" edge="1">
          <mxGeometry width="50" height="50" relative="1" as="geometry">
            <mxPoint x="2560" y="4040" as="sourcePoint" />
            <mxPoint x="2450" y="2450" as="targetPoint" />
          </mxGeometry>
        </mxCell>
        <mxCell id="9YylhwKCVsvaTIbhZPHO-7" value="" style="endArrow=none;dashed=1;html=1;rounded=0;entryX=0.5;entryY=1;entryDx=0;entryDy=0;" parent="1" target="DiCDhZw2fZLvfQioZ7Zl-114" edge="1">
          <mxGeometry width="50" height="50" relative="1" as="geometry">
            <mxPoint x="3040" y="4040" as="sourcePoint" />
            <mxPoint x="3030" y="3570" as="targetPoint" />
          </mxGeometry>
        </mxCell>
        <mxCell id="9YylhwKCVsvaTIbhZPHO-8" value="" style="endArrow=none;dashed=1;html=1;rounded=0;entryX=0.5;entryY=1;entryDx=0;entryDy=0;" parent="1" target="DiCDhZw2fZLvfQioZ7Zl-107" edge="1">
          <mxGeometry width="50" height="50" relative="1" as="geometry">
            <mxPoint x="3520" y="4041.1111111111113" as="sourcePoint" />
            <mxPoint x="3490" y="2640" as="targetPoint" />
          </mxGeometry>
        </mxCell>
        <mxCell id="9YylhwKCVsvaTIbhZPHO-9" value="" style="endArrow=none;dashed=1;html=1;rounded=0;entryX=0.5;entryY=1;entryDx=0;entryDy=0;exitX=0.5;exitY=0;exitDx=0;exitDy=0;" parent="1" source="DiCDhZw2fZLvfQioZ7Zl-107" target="DiCDhZw2fZLvfQioZ7Zl-101" edge="1">
          <mxGeometry width="50" height="50" relative="1" as="geometry">
            <mxPoint x="3690" y="2680" as="sourcePoint" />
            <mxPoint x="3740" y="2630" as="targetPoint" />
          </mxGeometry>
        </mxCell>
        <mxCell id="9YylhwKCVsvaTIbhZPHO-10" value="" style="endArrow=none;dashed=1;html=1;rounded=0;entryX=0.5;entryY=1;entryDx=0;entryDy=0;" parent="1" target="DiCDhZw2fZLvfQioZ7Zl-95" edge="1">
          <mxGeometry width="50" height="50" relative="1" as="geometry">
            <mxPoint x="4000" y="4041.6666666666665" as="sourcePoint" />
            <mxPoint x="4190" y="2840" as="targetPoint" />
          </mxGeometry>
        </mxCell>
        <mxCell id="9YylhwKCVsvaTIbhZPHO-11" value="" style="endArrow=none;dashed=1;html=1;rounded=0;entryX=0.5;entryY=1;entryDx=0;entryDy=0;" parent="1" target="DiCDhZw2fZLvfQioZ7Zl-119" edge="1">
          <mxGeometry width="50" height="50" relative="1" as="geometry">
            <mxPoint x="4480" y="4040" as="sourcePoint" />
            <mxPoint x="4190" y="3340" as="targetPoint" />
          </mxGeometry>
        </mxCell>
        <mxCell id="9YylhwKCVsvaTIbhZPHO-12" value="" style="endArrow=none;dashed=1;html=1;rounded=0;entryX=0.5;entryY=1;entryDx=0;entryDy=0;" parent="1" target="DiCDhZw2fZLvfQioZ7Zl-142" edge="1">
          <mxGeometry width="50" height="50" relative="1" as="geometry">
            <mxPoint x="4960" y="4040" as="sourcePoint" />
            <mxPoint x="5190" y="3770" as="targetPoint" />
          </mxGeometry>
        </mxCell>
        <mxCell id="9YylhwKCVsvaTIbhZPHO-13" value="" style="endArrow=none;dashed=1;html=1;rounded=0;entryX=0.5;entryY=1;entryDx=0;entryDy=0;" parent="1" target="DiCDhZw2fZLvfQioZ7Zl-157" edge="1">
          <mxGeometry width="50" height="50" relative="1" as="geometry">
            <mxPoint x="5440" y="4040" as="sourcePoint" />
            <mxPoint x="5190" y="3770" as="targetPoint" />
          </mxGeometry>
        </mxCell>
        <mxCell id="DiCDhZw2fZLvfQioZ7Zl-165" value="" style="rounded=0;whiteSpace=wrap;html=1;strokeColor=default;align=center;verticalAlign=middle;fontFamily=Helvetica;fontSize=12;fontColor=default;fillColor=none;" parent="1" vertex="1">
          <mxGeometry x="441" y="3000" width="4639" height="480" as="geometry" />
        </mxCell>
        <mxCell id="DiCDhZw2fZLvfQioZ7Zl-127" value="" style="rounded=0;whiteSpace=wrap;html=1;strokeColor=default;align=center;verticalAlign=middle;fontFamily=Helvetica;fontSize=12;fontColor=default;fillColor=none;" parent="1" vertex="1">
          <mxGeometry x="2840" y="1800" width="1280" height="800" as="geometry" />
        </mxCell>
        <mxCell id="DiCDhZw2fZLvfQioZ7Zl-151" value="" style="rounded=0;whiteSpace=wrap;html=1;strokeColor=default;align=center;verticalAlign=middle;fontFamily=Helvetica;fontSize=12;fontColor=default;fillColor=none;" parent="1" vertex="1">
          <mxGeometry x="1400" y="1600" width="3160" height="1360" as="geometry" />
        </mxCell>
        <mxCell id="DiCDhZw2fZLvfQioZ7Zl-166" value="" style="rounded=0;whiteSpace=wrap;html=1;strokeColor=default;align=center;verticalAlign=middle;fontFamily=Helvetica;fontSize=12;fontColor=default;fillColor=none;" parent="1" vertex="1">
          <mxGeometry x="400" y="640" width="5160" height="3200" as="geometry" />
        </mxCell>
      </root>
    </mxGraphModel>
  </diagram>
</mxfile>
